<svg viewBox="0 0 52 32" xmlns="http://www.w3.org/2000/svg">
  <path d="M7 13 C5 9, 4 6, 3 3" stroke="#1C1917" stroke-width="1.1" stroke-linecap="round" fill="none"/>
  <path d="M12 9 C11 6, 10 3, 9 1" stroke="#1C1917" stroke-width="1.1" stroke-linecap="round" fill="none"/>
  <path d="M18 7 C18 4, 18 2, 18 0" stroke="#1C1917" stroke-width="1.2" stroke-linecap="round" fill="none"/>
  <path d="M26 6 C27 3, 28 1, 29 0" stroke="#1C1917" stroke-width="1.1" stroke-linecap="round" fill="none"/>
  <path d="M33 8 C35 5, 37 3, 39 2" stroke="#1C1917" stroke-width="1.1" stroke-linecap="round" fill="none"/>
  <path d="M3 16 C7 8, 16 5, 26 5 C36 5, 45 8, 49 16 C45 24, 36 27, 26 27 C16 27, 7 24, 3 16Z" fill="#1C1917"/>
  <ellipse cx="26" cy="16" rx="15" ry="9" fill="#FAFAF9"/>
  <circle cx="26" cy="16" r="7.5" fill="#BE123C"/>
  <circle cx="26" cy="16" r="6" fill="#E11D48"/>
  <circle cx="26" cy="16" r="4.5" fill="#F43F5E"/>
  <circle cx="26" cy="16" r="3" fill="#0C0A09"/>
  <circle cx="23.8" cy="13.5" r="1.8" fill="white" opacity="0.9"/>
</svg>
